<svg viewBox="0 0 48 40" fill="none" xmlns="http://www.w3.org/2000/svg">
  <path d="M44.2 1.75H3.8C3.79183 1.75 3.78345 1.75 3.77487 1.74999C3.65815 1.74993 3.5059 1.74984 3.36981 1.76096C3.20913 1.77409 2.96458 1.80874 2.70552 1.94074C2.37623 2.10852 2.10852 2.37623 1.94074 2.70552C1.80874 2.96458 1.77409 3.20913 1.76096 3.36981C1.74984 3.5059 1.74993 3.65815 1.74999 3.77487C1.75 3.78345 1.75 3.79183 1.75 3.8V36.2L1.74999 36.2251C1.74993 36.3418 1.74984 36.4941 1.76096 36.6302C1.77409 36.7909 1.80874 37.0354 1.94074 37.2945C2.10852 37.6238 2.37623 37.8915 2.70552 38.0593C2.96458 38.1913 3.20913 38.2259 3.36981 38.239C3.50589 38.2502 3.65814 38.2501 3.77486 38.25L3.8 38.25H44.2L44.2251 38.25C44.3419 38.2501 44.4941 38.2502 44.6302 38.239C44.7909 38.2259 45.0354 38.1913 45.2945 38.0593C45.6238 37.8915 45.8915 37.6238 46.0593 37.2945C46.1913 37.0354 46.2259 36.7909 46.239 36.6302C46.2502 36.4941 46.2501 36.3419 46.25 36.2251L46.25 36.2V3.8L46.25 3.77486C46.2501 3.65814 46.2502 3.50589 46.239 3.36981C46.2259 3.20913 46.1913 2.96458 46.0593 2.70552C45.8915 2.37623 45.6238 2.10852 45.2945 1.94074C45.0354 1.80874 44.7909 1.77409 44.6302 1.76096C44.4941 1.74984 44.3418 1.74993 44.2251 1.74999L44.2 1.75Z" fill="#222325"/>
  <path d="M44.2 1.75H3.8C3.79183 1.75 3.78345 1.75 3.77487 1.74999C3.65815 1.74993 3.5059 1.74984 3.36981 1.76096C3.20913 1.77409 2.96458 1.80874 2.70552 1.94074C2.37623 2.10852 2.10852 2.37623 1.94074 2.70552C1.80874 2.96458 1.77409 3.20913 1.76096 3.36981C1.74984 3.5059 1.74993 3.65815 1.74999 3.77487C1.75 3.78345 1.75 3.79183 1.75 3.8V36.2L1.74999 36.2251C1.74993 36.3418 1.74984 36.4941 1.76096 36.6302C1.77409 36.7909 1.80874 37.0354 1.94074 37.2945C2.10852 37.6238 2.37623 37.8915 2.70552 38.0593C2.96458 38.1913 3.20913 38.2259 3.36981 38.239C3.50589 38.2502 3.65814 38.2501 3.77486 38.25L3.8 38.25H44.2L44.2251 38.25C44.3419 38.2501 44.4941 38.2502 44.6302 38.239C44.7909 38.2259 45.0354 38.1913 45.2945 38.0593C45.6238 37.8915 45.8915 37.6238 46.0593 37.2945C46.1913 37.0354 46.2259 36.7909 46.239 36.6302C46.2502 36.4941 46.2501 36.3419 46.25 36.2251L46.25 36.2V3.8L46.25 3.77486C46.2501 3.65814 46.2502 3.50589 46.239 3.36981C46.2259 3.20913 46.1913 2.96458 46.0593 2.70552C45.8915 2.37623 45.6238 2.10852 45.2945 1.94074C45.0354 1.80874 44.7909 1.77409 44.6302 1.76096C44.4941 1.74984 44.3418 1.74993 44.2251 1.74999L44.2 1.75Z" fill="url(#paint0_radial)" fill-opacity="0.15"/>
  <path d="M44.2 1.75H3.8C3.79183 1.75 3.78345 1.75 3.77487 1.74999C3.65815 1.74993 3.5059 1.74984 3.36981 1.76096C3.20913 1.77409 2.96458 1.80874 2.70552 1.94074C2.37623 2.10852 2.10852 2.37623 1.94074 2.70552C1.80874 2.96458 1.77409 3.20913 1.76096 3.36981C1.74984 3.5059 1.74993 3.65815 1.74999 3.77487C1.75 3.78345 1.75 3.79183 1.75 3.8V36.2L1.74999 36.2251C1.74993 36.3418 1.74984 36.4941 1.76096 36.6302C1.77409 36.7909 1.80874 37.0354 1.94074 37.2945C2.10852 37.6238 2.37623 37.8915 2.70552 38.0593C2.96458 38.1913 3.20913 38.2259 3.36981 38.239C3.50589 38.2502 3.65814 38.2501 3.77486 38.25L3.8 38.25H44.2L44.2251 38.25C44.3419 38.2501 44.4941 38.2502 44.6302 38.239C44.7909 38.2259 45.0354 38.1913 45.2945 38.0593C45.6238 37.8915 45.8915 37.6238 46.0593 37.2945C46.1913 37.0354 46.2259 36.7909 46.239 36.6302C46.2502 36.4941 46.2501 36.3419 46.25 36.2251L46.25 36.2V3.8L46.25 3.77486C46.2501 3.65814 46.2502 3.50589 46.239 3.36981C46.2259 3.20913 46.1913 2.96458 46.0593 2.70552C45.8915 2.37623 45.6238 2.10852 45.2945 1.94074C45.0354 1.80874 44.7909 1.77409 44.6302 1.76096C44.4941 1.74984 44.3418 1.74993 44.2251 1.74999L44.2 1.75Z" stroke="black" stroke-width="2.5"/>
  <path d="M20.0395 8.77802C20.0395 8.44037 19.9737 8.19612 19.8421 8.04526C19.7105 7.8944 19.4839 7.81897 19.1623 7.81897H18.2741C18.0914 7.81897 18 7.72917 18 7.54957V7.2694C18 7.0898 18.0914 7 18.2741 7H19.1623C19.8056 7 20.2661 7.13649 20.5439 7.40948C20.8289 7.68247 20.9715 8.13865 20.9715 8.77802V10.6746C20.9715 10.9978 21.0373 11.2313 21.1689 11.375C21.3004 11.5187 21.527 11.5905 21.8487 11.5905H22.7259C22.9086 11.5905 23 11.6803 23 11.8599V12.1401C23 12.3197 22.9086 12.4095 22.7259 12.4095H21.8487C21.527 12.4095 21.3004 12.4813 21.1689 12.625C21.0373 12.7615 20.9715 12.9914 20.9715 13.3147V15.222C20.9715 15.8614 20.8326 16.3175 20.5548 16.5905C20.277 16.8635 19.8129 17 19.1623 17H18.2741C18.0914 17 18 16.9102 18 16.7306V16.4504C18 16.2708 18.0914 16.181 18.2741 16.181H19.1623C19.4839 16.181 19.7105 16.1056 19.8421 15.9547C19.9737 15.8111 20.0395 15.5668 20.0395 15.222V13.3147C20.0395 12.9914 20.087 12.7256 20.182 12.5172C20.277 12.3017 20.4708 12.1293 20.7632 12C20.4708 11.8635 20.277 11.6911 20.182 11.4828C20.087 11.2744 20.0395 11.005 20.0395 10.6746V8.77802V8.77802Z" fill="white"/>
  <path d="M9.96053 10.6746C9.96053 11.005 9.91301 11.2744 9.81798 11.4828C9.72295 11.6911 9.52924 11.8635 9.23684 12C9.52924 12.1293 9.72295 12.3017 9.81798 12.5172C9.91301 12.7256 9.96053 12.9914 9.96053 13.3147V15.222C9.96053 15.5668 10.0263 15.8111 10.1579 15.9547C10.2895 16.1056 10.5161 16.181 10.8377 16.181H11.7259C11.9086 16.181 12 16.2708 12 16.4504V16.7306C12 16.9102 11.9086 17 11.7259 17H10.8377C10.1944 17 9.73026 16.8635 9.44518 16.5905C9.1674 16.3175 9.02851 15.8614 9.02851 15.222V13.3147C9.02851 12.9914 8.96272 12.7615 8.83114 12.625C8.69956 12.4813 8.47295 12.4095 8.15132 12.4095H7.27412C7.09137 12.4095 7 12.3197 7 12.1401V11.8599C7 11.6803 7.09137 11.5905 7.27412 11.5905H8.15132C8.47295 11.5905 8.69956 11.5187 8.83114 11.375C8.96272 11.2313 9.02851 10.9978 9.02851 10.6746V8.77802C9.02851 8.13865 9.1674 7.68247 9.44518 7.40948C9.73026 7.13649 10.1944 7 10.8377 7H11.7259C11.9086 7 12 7.0898 12 7.2694V7.54957C12 7.72917 11.9086 7.81897 11.7259 7.81897H10.8377C10.5161 7.81897 10.2895 7.8944 10.1579 8.04526C10.0263 8.19612 9.96053 8.44037 9.96053 8.77802V10.6746V10.6746Z" fill="white"/>

  <defs>
    <radialGradient id="paint0_radial" cx="0" cy="0" r="1" gradientUnits="userSpaceOnUse" gradientTransform="translate(24 3) rotate(90) scale(34 31.625)">
      <stop stop-color="white"/>
      <stop offset="1" stop-color="white" stop-opacity="0"/>
    </radialGradient>
  </defs>
</svg>
